<svg width="893" height="345" viewBox="0 0 893 345" fill="none" xmlns="http://www.w3.org/2000/svg">
<g clip-path="url(#clip0)">
<rect width="893" height="345" fill="white"/>
<path d="M45.7656 217.234C26.0312 217.234 13.6562 230.688 13.6562 252.203C13.6562 273.719 26.0312 287.125 45.7656 287.125C65.4531 287.125 77.8281 273.719 77.8281 252.203C77.8281 230.688 65.4531 217.234 45.7656 217.234ZM45.7656 227.547C57.8125 227.547 65.5 237.109 65.5 252.203C65.5 267.25 57.8125 276.812 45.7656 276.812C33.6719 276.812 26.0312 267.25 26.0312 252.203C26.0312 237.109 33.6719 227.547 45.7656 227.547ZM113.594 235.469C106.375 235.469 100.75 239.125 97.9375 244.891H97.7031V236.312H86.3125V302.359H97.9844V277.75H98.2188C100.938 283.328 106.562 286.797 113.781 286.797C126.25 286.797 134.219 277 134.219 261.156C134.219 245.266 126.203 235.469 113.594 235.469ZM110.031 277.234C102.766 277.234 97.9375 270.906 97.8906 261.156C97.9375 251.5 102.766 245.078 110.031 245.078C117.578 245.078 122.266 251.359 122.266 261.156C122.266 271 117.578 277.234 110.031 277.234ZM174.625 271.141C173.359 275.266 169.234 277.984 163.797 277.984C156.156 277.984 151.281 272.641 151.281 264.672V263.969H186.016V260.172C186.016 245.078 177.203 235.281 163.094 235.281C148.75 235.281 139.656 245.641 139.656 261.344C139.656 277.188 148.656 286.984 163.562 286.984C175.328 286.984 184.047 280.516 185.547 271.141H174.625ZM163.141 244.328C169.844 244.328 174.344 249.25 174.578 256.281H151.375C151.844 249.344 156.578 244.328 163.141 244.328ZM193.562 286H205.234V257.219C205.234 250.094 209.5 245.266 216.203 245.266C222.859 245.266 226.141 249.203 226.141 256.234V286H237.812V253.891C237.812 242.406 231.578 235.375 220.609 235.375C212.969 235.375 207.672 238.938 205 244.844H204.766V236.312H193.562V286ZM295.844 287.078C310.516 287.078 320.875 279.156 323.266 265.984H316.844C314.828 275.359 306.672 281.125 295.891 281.125C281.5 281.125 272.266 269.828 272.266 252.016C272.266 234.438 281.5 223.234 295.844 223.234C306.344 223.234 314.969 230.078 316.844 239.828H323.266C321.438 226.609 310.141 217.281 295.844 217.281C277.469 217.281 265.703 230.828 265.703 252.016C265.703 273.438 277.422 287.078 295.844 287.078ZM351.531 286.797C364.797 286.797 373.75 277.094 373.75 261.625C373.75 246.109 364.797 236.453 351.531 236.453C338.312 236.453 329.312 246.109 329.312 261.625C329.312 277.094 338.266 286.797 351.531 286.797ZM351.531 281.312C341.969 281.312 335.641 274 335.641 261.625C335.641 249.25 341.969 241.938 351.531 241.938C361.094 241.938 367.469 249.25 367.469 261.625C367.469 274 361.094 281.312 351.531 281.312ZM382 286H388.188V257.125C388.188 248.078 393.859 241.984 402.297 241.984C410.453 241.984 415.141 246.859 415.141 255.391V286H421.328V254.406C421.328 243.344 414.766 236.453 404.078 236.453C396.203 236.453 390.484 240.344 388 246.25H387.859V237.25H382V286ZM434.453 225.062V237.25H427.188V242.406H434.453V274C434.453 282.812 437.734 286.281 445.891 286.281C447.203 286.281 449.828 286.141 450.484 286V280.703C450.109 280.797 447.766 280.891 447.109 280.891C442.609 280.891 440.641 278.734 440.641 273.719V242.406H450.25V237.25H440.641V225.062H434.453ZM472.094 286.797C479.359 286.797 486.016 282.766 488.734 276.719H488.875V286H494.781V252.625C494.781 242.688 487.797 236.453 476.688 236.453C465.578 236.453 458.406 242.641 457.703 251.359H463.703C464.781 245.453 469.375 241.938 476.547 241.938C484.141 241.938 488.594 246.156 488.594 253.188V257.406L473.406 258.344C462.156 259.094 455.922 264.156 455.922 272.5C455.922 281.031 462.484 286.797 472.094 286.797ZM473.359 281.453C466.75 281.453 462.203 277.797 462.203 272.5C462.203 267.109 466.469 263.781 474.156 263.266L488.594 262.281V267.672C488.594 275.406 481.891 281.453 473.359 281.453ZM544.844 252.672C543.625 243.953 536.266 236.453 524.781 236.453C511.516 236.453 502.75 246.25 502.75 261.625C502.75 277.234 511.516 286.797 524.828 286.797C535.609 286.797 543.531 280.234 544.891 270.906H538.75C537.344 277.234 532.234 281.312 524.875 281.312C515.359 281.312 509.078 273.859 509.078 261.625C509.078 249.578 515.312 241.938 524.828 241.938C532.516 241.938 537.438 246.672 538.75 252.672H544.844ZM555.297 225.062V237.25H548.031V242.406H555.297V274C555.297 282.812 558.578 286.281 566.734 286.281C568.047 286.281 570.672 286.141 571.328 286V280.703C570.953 280.797 568.609 280.891 567.953 280.891C563.453 280.891 561.484 278.734 561.484 273.719V242.406H571.094V237.25H561.484V225.062H555.297ZM624.766 286V224.172H647.125V218.359H596.031V224.172H618.344V286H624.766ZM644.031 286H650.219V255.625C650.219 247.75 654.625 242.359 661.562 242.359C663.672 242.359 665.406 242.688 666.203 243.062V236.969C665.453 236.781 664 236.453 662.359 236.453C656.359 236.453 651.812 239.969 650.031 245.922H649.891V237.25H644.031V286ZM685.844 286.797C693.109 286.797 699.766 282.766 702.484 276.719H702.625V286H708.531V252.625C708.531 242.688 701.547 236.453 690.438 236.453C679.328 236.453 672.156 242.641 671.453 251.359H677.453C678.531 245.453 683.125 241.938 690.297 241.938C697.891 241.938 702.344 246.156 702.344 253.188V257.406L687.156 258.344C675.906 259.094 669.672 264.156 669.672 272.5C669.672 281.031 676.234 286.797 685.844 286.797ZM687.109 281.453C680.5 281.453 675.953 277.797 675.953 272.5C675.953 267.109 680.219 263.781 687.906 263.266L702.344 262.281V267.672C702.344 275.406 695.641 281.453 687.109 281.453ZM758.594 252.672C757.375 243.953 750.016 236.453 738.531 236.453C725.266 236.453 716.5 246.25 716.5 261.625C716.5 277.234 725.266 286.797 738.578 286.797C749.359 286.797 757.281 280.234 758.641 270.906H752.5C751.094 277.234 745.984 281.312 738.625 281.312C729.109 281.312 722.828 273.859 722.828 261.625C722.828 249.578 729.062 241.938 738.578 241.938C746.266 241.938 751.188 246.672 752.5 252.672H758.594ZM769.891 227.125C772.188 227.125 774.062 225.297 774.062 223C774.062 220.703 772.188 218.875 769.891 218.875C767.641 218.875 765.766 220.703 765.766 223C765.766 225.297 767.641 227.125 769.891 227.125ZM766.797 286H772.984V237.25H766.797V286ZM784.094 286H790.281V257.125C790.281 248.078 795.953 241.984 804.391 241.984C812.547 241.984 817.234 246.859 817.234 255.391V286H823.422V254.406C823.422 243.344 816.859 236.453 806.172 236.453C798.297 236.453 792.578 240.344 790.094 246.25H789.953V237.25H784.094V286ZM853.75 304.047C866.781 304.047 875.078 296.547 875.078 285.203V237.25H869.172V247.562H869.031C866.172 240.906 859.938 236.453 852.156 236.453C839.688 236.453 831.438 246.344 831.438 261.484C831.438 276.578 839.688 286.469 852.016 286.469C859.797 286.469 866.078 281.922 868.703 275.641H868.844V285.438C868.844 293.406 863.172 298.703 854.031 298.703C846.953 298.703 841.75 295.281 840.156 290.5H833.734C835.094 298.188 843.109 304.047 853.75 304.047ZM853.141 280.984C843.953 280.984 837.812 273.297 837.812 261.531C837.812 249.672 843.953 241.938 853.141 241.938C862.516 241.938 868.844 249.812 868.844 261.484C868.844 273.156 862.516 280.984 853.141 280.984Z" fill="#222C38"/>
<circle cx="446" cy="43" r="8" fill="#ECF2FC"/>
<circle cx="446" cy="177" r="8" fill="#ECF2FC"/>
<line x1="446" y1="177" x2="446" y2="43" stroke="#ECF2FC" stroke-width="4"/>
<circle cx="513" cy="110" r="8" transform="rotate(90 513 110)" fill="#ECF2FC"/>
<circle cx="379" cy="110" r="8" transform="rotate(90 379 110)" fill="#ECF2FC"/>
<line x1="379" y1="110" x2="513" y2="110" stroke="#ECF2FC" stroke-width="4"/>
<circle cx="493.376" cy="157.376" r="8" transform="rotate(135 493.376 157.376)" fill="#ECF2FC"/>
<circle cx="398.624" cy="62.6238" r="8" transform="rotate(135 398.624 62.6238)" fill="#ECF2FC"/>
<line x1="398.624" y1="62.6238" x2="493.376" y2="157.376" stroke="#ECF2FC" stroke-width="4"/>
<circle cx="398.624" cy="157.376" r="8" transform="rotate(-135 398.624 157.376)" fill="#ECF2FC"/>
<circle cx="493.376" cy="62.6238" r="8" transform="rotate(-135 493.376 62.6238)" fill="#ECF2FC"/>
<line x1="493.376" y1="62.6238" x2="398.624" y2="157.376" stroke="#ECF2FC" stroke-width="4"/>
<circle cx="446" cy="110" r="41" fill="#ECF2FC"/>
<g filter="url(#filter0_d)">
<circle cx="446" cy="110" r="26" fill="#FFFEFF"/>
</g>
<circle cx="446" cy="110" r="17" fill="#457FE5"/>
</g>
<defs>
<filter id="filter0_d" x="405" y="69" width="82" height="82" filterUnits="userSpaceOnUse" color-interpolation-filters="sRGB">
<feFlood flood-opacity="0" result="BackgroundImageFix"/>
<feColorMatrix in="SourceAlpha" type="matrix" values="0 0 0 0 0 0 0 0 0 0 0 0 0 0 0 0 0 0 127 0"/>
<feOffset/>
<feGaussianBlur stdDeviation="7.5"/>
<feColorMatrix type="matrix" values="0 0 0 0 0.270588 0 0 0 0 0.498039 0 0 0 0 0.898039 0 0 0 0.43 0"/>
<feBlend mode="normal" in2="BackgroundImageFix" result="effect1_dropShadow"/>
<feBlend mode="normal" in="SourceGraphic" in2="effect1_dropShadow" result="shape"/>
</filter>
<clipPath id="clip0">
<rect width="893" height="345" fill="white"/>
</clipPath>
</defs>
</svg>
